<?xml version="1.0" encoding="UTF-8" standalone="no"?>
<svg
   xmlns:dc="http://purl.org/dc/elements/1.1/"
   xmlns:cc="http://creativecommons.org/ns#"
   xmlns:rdf="http://www.w3.org/1999/02/22-rdf-syntax-ns#"
   xmlns:svg="http://www.w3.org/2000/svg"
   xmlns="http://www.w3.org/2000/svg"
   id="svg8"
   version="1.1"
   viewBox="0 0 33.866666 33.866668"
   height="128"
   width="128">
  <defs
     id="defs2" />
  <metadata
     id="metadata5">
    <rdf:RDF>
      <cc:Work
         rdf:about="">
        <dc:format>image/svg+xml</dc:format>
        <dc:type
           rdf:resource="http://purl.org/dc/dcmitype/StillImage" />
        <dc:title></dc:title>
      </cc:Work>
    </rdf:RDF>
  </metadata>
  <g
     transform="translate(0,-263.13332)"
     id="layer1">
    <path
       id="path845"
       d="m 12.108506,295.59551 c -2.901453,-0.90811 -6.6214681,-3.57188 -8.3817358,-6.00187 -4.7853584,-6.606 -3.84024866,-16.26599 2.1180826,-21.64897 3.5574699,-3.21396 5.7786042,-4.04072 10.9172952,-4.06367 5.364799,-0.024 7.996105,0.9818 11.522775,4.4043 4.736793,4.59691 6.25963,12.24774 3.616647,18.17029 -3.269915,7.32741 -12.284373,11.49006 -19.793064,9.13992 z m 11.127897,-1.70259 c 3.016752,-1.33445 6.359893,-4.67002 7.737351,-7.71983 1.66232,-3.68051 1.530797,-9.19089 -0.309126,-12.95156 -2.526379,-5.16374 -6.994294,-8.09401 -12.932741,-8.48194 -3.170719,-0.20711 -4.032413,-0.057 -6.798961,1.18457 -13.2794309,5.95946 -12.0133055,24.31435 1.995361,28.92654 2.113813,0.69595 7.754391,0.17195 10.308116,-0.95778 z m -12.352842,-1.96165 c -5.0165711,-2.85642 -7.3418053,-6.65118 -7.3337449,-11.9686 0.011592,-7.67218 5.6574687,-13.25295 13.4343259,-13.2795 13.878148,-0.0473 18.443849,18.56144 6.190371,25.23062 -3.495425,1.90245 -8.966826,1.91023 -12.290952,0.0174 z m 6.119263,-0.45931 c 2.168093,-1.12116 3.598606,-3.41495 3.560783,-5.70962 -0.02521,-1.52951 -0.125272,-1.7389 -0.450847,-0.94345 -0.535846,1.3092 -2.008102,2.59295 -3.492871,3.04567 -0.640541,0.19529 -1.471061,1.08512 -1.845597,1.97738 -1.051022,2.50387 -0.392603,2.98547 2.228532,1.63002 z m 4.802911,-0.91878 c 1.653585,-1.16518 3.36282,-4.51765 3.379681,-6.62885 0.01043,-1.30112 -0.140961,-1.40576 -2.033499,-1.40576 -2.274916,0 -2.231755,-0.0473 -1.562737,1.71235 0.670291,1.76301 -0.179369,4.50094 -2.002412,6.45252 -1.346088,1.44098 -1.382895,1.56529 -0.370466,1.2511 0.618263,-0.19185 1.783508,-0.81346 2.589433,-1.38136 z m -5.078498,-3.93364 c 0.953832,-0.31478 1.925616,-1.10579 2.259913,-1.83948 0.787981,-1.72943 0.779157,-1.7503 -0.740341,-1.7503 -2.919106,0 -6.289913,4.23096 -5.590609,7.01721 0.319843,1.27436 0.354459,1.25445 1.362898,-0.78378 0.735168,-1.48592 1.519176,-2.25126 2.708139,-2.64365 z m -7.9840864,1.56623 c -0.642147,-1.29789 -0.9338151,-2.7791 -0.8304363,-4.21724 l 0.1593534,-2.21673 h 8.9456773 8.945676 l 0.161073,1.95763 c 0.09857,1.19797 -0.223678,2.7353 -0.830434,3.96165 -0.545334,1.10222 -0.80205,2.00403 -0.570481,2.00403 0.638171,0 2.897183,-3.13799 3.779927,-5.2507 2.066094,-4.94486 -0.286347,-12.54208 -4.584816,-14.80669 -0.984056,-0.51846 -0.988843,-0.50082 -0.127804,0.47057 1.161354,1.31018 1.127826,1.97684 -0.19268,3.83134 l -1.087257,1.5269 1.139512,1.54129 c 0.830131,1.12279 0.986538,1.69423 0.576076,2.10471 -0.410461,0.41046 -0.563437,0.34448 -0.563437,-0.24299 0,-0.44354 -0.345048,-1.09278 -0.766772,-1.44278 -0.421724,-0.35001 -0.766772,-1.27013 -0.766772,-2.04472 0,-0.77461 0.345048,-1.69474 0.766772,-2.04474 1.871058,-1.55283 -0.447953,-5.00383 -3.770804,-5.61147 -1.962253,-0.35882 -2.776211,0.0263 -1.596602,0.75525 0.798522,0.49351 0.600891,3.08351 -0.363506,4.76389 -0.830722,1.44745 -0.827167,1.61229 0.07075,3.27963 0.519994,0.96557 0.854275,2.02909 0.742848,2.36337 -0.11142,0.33428 -0.764819,-0.42142 -1.451981,-1.67932 l -1.249382,-2.28709 1.171412,-2.34554 c 1.099009,-2.20055 1.120462,-2.42328 0.347076,-3.60361 -0.924769,-1.41138 -1.27742,-1.47493 -3.995651,-0.72005 -2.055645,0.5709 -2.262586,0.96706 -1.305589,2.49946 0.496743,0.79542 0.427041,1.32114 -0.371835,2.80457 -0.96522,1.7923 -0.965551,1.85838 -0.01797,3.61783 1.269404,2.35715 0.715771,2.85175 -0.67436,0.60247 -1.2771934,-2.06654 -1.3407512,-2.87775 -0.330157,-4.21389 0.950082,-1.25612 0.981586,-2.49144 0.08258,-3.23755 -0.5518134,-0.45796 -1.0898803,-0.15031 -2.5354849,1.44981 -4.3922862,4.86175 -4.1487468,11.93435 0.5862593,17.02549 0.7190803,0.77316 1.3505355,1.40574 1.4032373,1.40574 0.052706,0 -0.3495806,-0.90023 -0.8939614,-2.00052 z m 5.1565694,-4.07914 1.483475,-1.58806 h -3.27218 -3.2721808 v 1.84734 c 0,1.01603 0.507568,2.75041 1.1279295,3.8542 l 1.1279293,2.00689 0.660778,-2.26615 c 0.363427,-1.24639 1.32834,-2.98079 2.144249,-3.85422 z"
       style="stroke-width:0.51118159" />
  </g>
</svg>
